<?xml version="1.0" encoding="utf-8"?>
<!-- Generator: Adobe Illustrator 19.2.1, SVG Export Plug-In . SVG Version: 6.00 Build 0)  -->
<svg version="1.1" id="レイヤー_1" xmlns="http://www.w3.org/2000/svg" xmlns:xlink="http://www.w3.org/1999/xlink" x="0px"
	 y="0px" viewBox="0 0 160.9 45" style="enable-background:new 0 0 160.9 45;" xml:space="preserve">
<style type="text/css">
	.st0{fill:#F4D723;}
	.st1{fill:#060001;}
	.st2{fill:#040000;}
</style>
<g>
	
		<rect x="145.3" y="33.3" transform="matrix(0.5908 -0.8068 0.8068 0.5908 32.8044 136.7714)" class="st0" width="11.9" height="5.6"/>
	<g>
		<polygon class="st0" points="148.9,33 149,43.3 1.5,43.3 1.5,1.5 158.7,1.5 158.7,32.9 		"/>
		<path class="st1" d="M149,44.8H1.5c-0.8,0-1.5-0.7-1.5-1.5V1.5C0,0.7,0.7,0,1.5,0h157.2c0.8,0,1.5,0.7,1.5,1.5v31.4
			c0,0.8-0.7,1.5-1.5,1.5l-8.3,0.1l0.1,8.8c0,0.4-0.2,0.8-0.4,1.1C149.7,44.6,149.4,44.8,149,44.8z M3,41.8h144.4l-0.1-8.8
			c0-0.8,0.7-1.5,1.5-1.5l8.3-0.1V3H3V41.8z"/>
	</g>
	<g>
		<path class="st2" d="M38,18.2l-1.7-0.1h-1.8v16.1h-7l0-16.1h-0.3l-1.5,0.1c-0.6,0-1-0.2-1-0.7c0-0.4,0.3-0.7,0.9-0.7l1.9,0.1
			c0.2-2,1.1-3.4,2.6-4.5c1.4-0.9,3.2-1.4,5.4-1.4c2.1,0,3.5,0.4,4.3,1.2c0.2,0.2,0.3,0.4,0.3,0.6c0,0.5-0.2,0.7-0.7,0.7
			c-0.2,0-0.5-0.1-0.7-0.2L38.3,13c-0.6-0.5-1.3-0.7-2-0.8c-0.2,0-0.4,0-0.6,0s-0.4,0-0.6,0c-0.2,0-0.4,0-0.6,0.1V17h1.4l2.2-0.1
			c0.6,0,0.9,0.2,0.9,0.7C39,18,38.7,18.2,38,18.2z"/>
		<path class="st2" d="M46.7,34.6c-3.8,0-5.7-1.9-5.7-5.6V17H48v15.9c0.1,0.1,0.2,0.1,0.4,0.1h0.5c0.9,0,1.9-0.6,3.1-1.7
			c0.4-0.4,0.7-0.7,1-1.2V17h7v17.3h-7v-2.5C51.3,33.7,49.2,34.6,46.7,34.6z"/>
		<path class="st2" d="M64,32.1c0-0.2,0.1-0.3,0.2-0.4c0.1-0.1,0.3-0.2,0.4-0.2c0.2,0,0.3,0.1,0.5,0.2l0.4,0.4
			c1.1,1,2.7,1.5,4.7,1.5c1.4,0,2.2-0.3,2.6-0.8c0.1-0.2,0.2-0.3,0.2-0.5s0-0.3-0.1-0.5c-0.1-0.1-0.2-0.3-0.4-0.5
			c-0.2-0.2-0.5-0.5-0.8-0.8l-1.4-1.2c-2.4-1.8-4-3.3-4.8-4.5c-0.8-1-1.2-2.1-1.2-3.2c0-1.4,0.6-2.5,1.9-3.4c1.3-1,3-1.5,5.1-1.5
			c1.5,0,2.6,0.2,3.5,0.5c0.8,0.3,1.4,0.6,1.8,0.9c0.3,0.3,0.5,0.5,0.5,0.8c0,0.5-0.2,0.7-0.5,0.7c-0.2,0-0.3-0.1-0.5-0.2
			c-0.1-0.1-0.4-0.3-0.9-0.6c-0.4-0.3-1-0.5-1.7-0.7c-0.7-0.2-1.4-0.3-2-0.3c-0.6,0-1.1,0.1-1.3,0.3c-0.3,0.2-0.4,0.4-0.4,0.6
			c0,0.2,0,0.4,0.1,0.5c0.1,0.2,0.2,0.4,0.4,0.6c0.5,0.6,1.2,1.2,2.3,2c1,0.8,1.9,1.5,2.7,2.1c0.7,0.6,1.3,1.2,1.7,1.8
			c0.7,1,1.1,2,1.1,2.9c0,1-0.2,1.8-0.6,2.6c-0.4,0.7-0.9,1.3-1.6,1.8c-1.4,1.1-3.4,1.6-5.8,1.6c-1.9,0-3.5-0.4-4.8-1.1
			C64.4,33,64,32.6,64,32.1z"/>
		<path class="st2" d="M96.9,30.3c0.4,0,0.6,0.2,0.6,0.6c0,0.3-0.2,0.6-0.6,1c-1.7,1.8-4,2.6-7,2.6c-2.7,0-4.9-0.8-6.7-2.4
			c-1.9-1.7-2.8-3.8-2.8-6.4c0-2.6,0.9-4.8,2.6-6.5c1.8-1.8,4.2-2.7,7.2-2.7c2.4,0,4.4,0.7,6,2.2c1.8,1.6,2.6,3.6,2.6,6.2
			c0,0.4,0,0.8,0,1.2H88.1v7c0.7,0.2,1.6,0.2,2.5,0.2c1.9,0,3.6-0.6,5-1.9c0.3-0.3,0.5-0.5,0.6-0.7C96.4,30.5,96.6,30.3,96.9,30.3z
			 M92.6,18.2c-0.7-0.2-1.5-0.3-2.4-0.3c-0.9,0-1.6,0.1-2.1,0.2v7h4.5V18.2z"/>
		<path class="st2" d="M114.9,18.7c-0.3-0.2-0.6-0.3-0.9-0.3c-0.3,0-0.6,0.1-1,0.2c-0.3,0.1-0.7,0.3-1.1,0.6
			c-0.8,0.6-1.5,1.3-2.1,2.2v12.8h-7V17h7v2.8c1.8-2,3.9-3.1,6.3-3.1c3.8,0,5.7,1.8,5.7,5.5v12.1h-7V18.7z"/>
		<path class="st2" d="M126.2,32.5c-0.2-0.4-0.2-0.9-0.2-1.4c0-0.5,0.1-0.9,0.3-1.3c0.2-0.4,0.5-0.7,0.8-1c0.7-0.7,1.7-1,2.8-1
			c1.1,0,2.1,0.4,2.8,1.1c0.6,0.7,1,1.5,1,2.4c0,0.9-0.4,1.7-1.1,2.3c-0.8,0.6-1.7,1-2.7,1C127.9,34.6,126.7,33.9,126.2,32.5z"/>
	</g>
	<g>
		<line class="st0" x1="158.7" y1="32.9" x2="149" y2="43.3"/>
		<path class="st1" d="M149,44.8c-0.4,0-0.7-0.1-1-0.4c-0.6-0.6-0.6-1.5-0.1-2.1l9.7-10.4c0.6-0.6,1.5-0.6,2.1-0.1
			c0.6,0.6,0.6,1.5,0.1,2.1L150,44.3C149.8,44.6,149.4,44.8,149,44.8z"/>
	</g>
</g>
<g>
	
		<rect x="145.3" y="33.3" transform="matrix(0.5908 -0.8068 0.8068 0.5908 32.8044 136.7714)" class="st0" width="11.9" height="5.6"/>
	<g>
		<polygon class="st0" points="148.9,33 149,43.3 1.5,43.3 1.5,1.5 158.7,1.5 158.7,32.9 		"/>
		<path class="st1" d="M149,44.8H1.5c-0.8,0-1.5-0.7-1.5-1.5V1.5C0,0.7,0.7,0,1.5,0h157.2c0.8,0,1.5,0.7,1.5,1.5v31.4
			c0,0.8-0.7,1.5-1.5,1.5l-8.3,0.1l0.1,8.8c0,0.4-0.2,0.8-0.4,1.1C149.7,44.6,149.4,44.8,149,44.8z M3,41.8h144.4l-0.1-8.8
			c0-0.8,0.7-1.5,1.5-1.5l8.3-0.1V3H3V41.8z"/>
	</g>
	<g>
		<path class="st2" d="M38,18.2l-1.7-0.1h-1.8v16.1h-7l0-16.1h-0.3l-1.5,0.1c-0.6,0-1-0.2-1-0.7c0-0.4,0.3-0.7,0.9-0.7l1.9,0.1
			c0.2-2,1.1-3.4,2.6-4.5c1.4-0.9,3.2-1.4,5.4-1.4c2.1,0,3.5,0.4,4.3,1.2c0.2,0.2,0.3,0.4,0.3,0.6c0,0.5-0.2,0.7-0.7,0.7
			c-0.2,0-0.5-0.1-0.7-0.2L38.3,13c-0.6-0.5-1.3-0.7-2-0.8c-0.2,0-0.4,0-0.6,0s-0.4,0-0.6,0c-0.2,0-0.4,0-0.6,0.1V17h1.4l2.2-0.1
			c0.6,0,0.9,0.2,0.9,0.7C39,18,38.7,18.2,38,18.2z"/>
		<path class="st2" d="M46.7,34.6c-3.8,0-5.7-1.9-5.7-5.6V17H48v15.9c0.1,0.1,0.2,0.1,0.4,0.1h0.5c0.9,0,1.9-0.6,3.1-1.7
			c0.4-0.4,0.7-0.7,1-1.2V17h7v17.3h-7v-2.5C51.3,33.7,49.2,34.6,46.7,34.6z"/>
		<path class="st2" d="M64,32.1c0-0.2,0.1-0.3,0.2-0.4c0.1-0.1,0.3-0.2,0.4-0.2c0.2,0,0.3,0.1,0.5,0.2l0.4,0.4
			c1.1,1,2.7,1.5,4.7,1.5c1.4,0,2.2-0.3,2.6-0.8c0.1-0.2,0.2-0.3,0.2-0.5s0-0.3-0.1-0.5c-0.1-0.1-0.2-0.3-0.4-0.5
			c-0.2-0.2-0.5-0.5-0.8-0.8l-1.4-1.2c-2.4-1.8-4-3.3-4.8-4.5c-0.8-1-1.2-2.1-1.2-3.2c0-1.4,0.6-2.5,1.9-3.4c1.3-1,3-1.5,5.1-1.5
			c1.5,0,2.6,0.2,3.5,0.5c0.8,0.3,1.4,0.6,1.8,0.9c0.3,0.3,0.5,0.5,0.5,0.8c0,0.5-0.2,0.7-0.5,0.7c-0.2,0-0.3-0.1-0.5-0.2
			c-0.1-0.1-0.4-0.3-0.9-0.6c-0.4-0.3-1-0.5-1.7-0.7c-0.7-0.2-1.4-0.3-2-0.3c-0.6,0-1.1,0.1-1.3,0.3c-0.3,0.2-0.4,0.4-0.4,0.6
			c0,0.2,0,0.4,0.1,0.5c0.1,0.2,0.2,0.4,0.4,0.6c0.5,0.6,1.2,1.2,2.3,2c1,0.8,1.9,1.5,2.7,2.1c0.7,0.6,1.3,1.2,1.7,1.8
			c0.7,1,1.1,2,1.1,2.9c0,1-0.2,1.8-0.6,2.6c-0.4,0.7-0.9,1.3-1.6,1.8c-1.4,1.1-3.4,1.6-5.8,1.6c-1.9,0-3.5-0.4-4.8-1.1
			C64.4,33,64,32.6,64,32.1z"/>
		<path class="st2" d="M96.9,30.3c0.4,0,0.6,0.2,0.6,0.6c0,0.3-0.2,0.6-0.6,1c-1.7,1.8-4,2.6-7,2.6c-2.7,0-4.9-0.8-6.7-2.4
			c-1.9-1.7-2.8-3.8-2.8-6.4c0-2.6,0.9-4.8,2.6-6.5c1.8-1.8,4.2-2.7,7.2-2.7c2.4,0,4.4,0.7,6,2.2c1.8,1.6,2.6,3.6,2.6,6.2
			c0,0.4,0,0.8,0,1.2H88.1v7c0.7,0.2,1.6,0.2,2.5,0.2c1.9,0,3.6-0.6,5-1.9c0.3-0.3,0.5-0.5,0.6-0.7C96.4,30.5,96.6,30.3,96.9,30.3z
			 M92.6,18.2c-0.7-0.2-1.5-0.3-2.4-0.3c-0.9,0-1.6,0.1-2.1,0.2v7h4.5V18.2z"/>
		<path class="st2" d="M114.9,18.7c-0.3-0.2-0.6-0.3-0.9-0.3c-0.3,0-0.6,0.1-1,0.2c-0.3,0.1-0.7,0.3-1.1,0.6
			c-0.8,0.6-1.5,1.3-2.1,2.2v12.8h-7V17h7v2.8c1.8-2,3.9-3.1,6.3-3.1c3.8,0,5.7,1.8,5.7,5.5v12.1h-7V18.7z"/>
		<path class="st2" d="M126.2,32.5c-0.2-0.4-0.2-0.9-0.2-1.4c0-0.5,0.1-0.9,0.3-1.3c0.2-0.4,0.5-0.7,0.8-1c0.7-0.7,1.7-1,2.8-1
			c1.1,0,2.1,0.4,2.8,1.1c0.6,0.7,1,1.5,1,2.4c0,0.9-0.4,1.7-1.1,2.3c-0.8,0.6-1.7,1-2.7,1C127.9,34.6,126.7,33.9,126.2,32.5z"/>
	</g>
	<g>
		<line class="st0" x1="158.7" y1="32.9" x2="149" y2="43.3"/>
		<path class="st1" d="M149,44.8c-0.4,0-0.7-0.1-1-0.4c-0.6-0.6-0.6-1.5-0.1-2.1l9.7-10.4c0.6-0.6,1.5-0.6,2.1-0.1
			c0.6,0.6,0.6,1.5,0.1,2.1L150,44.3C149.8,44.6,149.4,44.8,149,44.8z"/>
	</g>
</g>
<g>
	<polygon class="st0" points="159.4,43.7 149.6,43.7 1.4,43.7 1.4,1.7 159.4,1.7 159.4,33.2 	"/>
	<path class="st1" d="M159.4,45.2H1.4c-0.8,0-1.5-0.7-1.5-1.5v-42c0-0.8,0.7-1.5,1.5-1.5h158c0.8,0,1.5,0.7,1.5,1.5v42
		C160.9,44.5,160.2,45.2,159.4,45.2z M3,42.2h154.9v-39H3V42.2z"/>
</g>
<g>
	<path class="st2" d="M38.1,18.5l-1.7-0.1h-1.8v16.2h-7l0-16.2h-0.3l-1.5,0.1c-0.6,0-1-0.2-1-0.7c0-0.4,0.3-0.7,0.9-0.7l1.9,0.1
		c0.2-2,1.1-3.5,2.6-4.5c1.4-1,3.2-1.4,5.5-1.4c2.1,0,3.6,0.4,4.3,1.3c0.2,0.2,0.3,0.4,0.3,0.7c0,0.5-0.2,0.7-0.7,0.7
		c-0.2,0-0.5-0.1-0.7-0.2l-0.6-0.4c-0.6-0.5-1.3-0.7-2-0.8c-0.2,0-0.4,0-0.6,0c-0.2,0-0.4,0-0.6,0c-0.2,0-0.4,0-0.6,0.1v4.7H36
		l2.2-0.1c0.6,0,0.9,0.2,0.9,0.7C39.1,18.3,38.8,18.5,38.1,18.5z"/>
	<path class="st2" d="M46.9,34.9c-3.8,0-5.7-1.9-5.7-5.6V17.2h7v15.9c0.1,0.1,0.2,0.1,0.4,0.1h0.5c0.9,0,1.9-0.6,3.1-1.8
		c0.4-0.4,0.7-0.8,1-1.2V17.2h7v17.4h-7v-2.5C51.4,34,49.3,34.9,46.9,34.9z"/>
	<path class="st2" d="M64.3,32.5c0-0.2,0.1-0.3,0.2-0.4c0.1-0.1,0.3-0.2,0.4-0.2s0.3,0.1,0.5,0.2l0.4,0.4c1.1,1,2.7,1.5,4.7,1.5
		c1.4,0,2.2-0.3,2.6-0.8c0.1-0.2,0.2-0.3,0.2-0.5s0-0.3-0.1-0.5c-0.1-0.1-0.2-0.3-0.4-0.5c-0.2-0.2-0.5-0.5-0.8-0.8l-1.4-1.2
		c-2.4-1.8-4-3.3-4.9-4.5c-0.8-1.1-1.2-2.1-1.2-3.2c0-1.4,0.6-2.5,1.9-3.5c1.3-1,3-1.5,5.1-1.5c1.5,0,2.6,0.2,3.5,0.5
		c0.8,0.3,1.4,0.6,1.8,0.9c0.3,0.3,0.5,0.5,0.5,0.8c0,0.5-0.2,0.7-0.6,0.7c-0.2,0-0.3-0.1-0.5-0.2c-0.1-0.1-0.4-0.3-0.9-0.6
		c-0.4-0.3-1-0.5-1.7-0.7c-0.7-0.2-1.4-0.3-2-0.3c-0.6,0-1.1,0.1-1.3,0.3c-0.3,0.2-0.4,0.4-0.4,0.6c0,0.2,0,0.4,0.1,0.5
		c0.1,0.2,0.2,0.4,0.4,0.6c0.5,0.6,1.2,1.2,2.3,2c1.1,0.8,1.9,1.5,2.7,2.1c0.7,0.6,1.3,1.2,1.7,1.8c0.7,1,1.1,2,1.1,3
		c0,1-0.2,1.9-0.6,2.6c-0.4,0.7-0.9,1.3-1.6,1.8c-1.4,1.1-3.4,1.6-5.8,1.6c-1.9,0-3.5-0.4-4.8-1.1C64.7,33.4,64.3,32.9,64.3,32.5z"
		/>
	<path class="st2" d="M97.3,30.7c0.4,0,0.6,0.2,0.6,0.6c0,0.3-0.2,0.6-0.6,1c-1.7,1.8-4.1,2.6-7.1,2.6c-2.7,0-4.9-0.8-6.8-2.4
		c-1.9-1.7-2.9-3.8-2.9-6.4c0-2.6,0.9-4.8,2.6-6.5c1.8-1.8,4.2-2.7,7.2-2.7c2.4,0,4.4,0.7,6.1,2.2c1.8,1.6,2.7,3.6,2.7,6.2
		c0,0.4,0,0.8,0,1.2H88.4v7c0.7,0.2,1.6,0.2,2.5,0.2c2,0,3.6-0.6,5-1.9c0.3-0.3,0.5-0.5,0.6-0.7C96.8,30.8,97,30.7,97.3,30.7z
		 M92.9,18.4c-0.7-0.2-1.5-0.3-2.4-0.3c-0.9,0-1.6,0.1-2.1,0.2v7h4.5V18.4z"/>
	<path class="st2" d="M115.4,19c-0.3-0.2-0.6-0.3-0.9-0.3c-0.3,0-0.6,0.1-1,0.2c-0.3,0.1-0.7,0.4-1.1,0.6c-0.8,0.6-1.5,1.3-2.1,2.2
		v12.8h-7V17.2h7V20c1.9-2.1,4-3.1,6.3-3.1c3.8,0,5.7,1.9,5.7,5.6v12.1h-7V19z"/>
	<path class="st2" d="M126.7,32.9c-0.2-0.4-0.2-0.9-0.2-1.4c0-0.5,0.1-0.9,0.3-1.3c0.2-0.4,0.5-0.7,0.8-1.1c0.7-0.7,1.7-1,2.8-1
		c1.1,0,2.1,0.4,2.8,1.1c0.7,0.7,1,1.5,1,2.4c0,0.9-0.4,1.7-1.1,2.3c-0.8,0.6-1.7,1-2.7,1C128.4,34.9,127.3,34.2,126.7,32.9z"/>
</g>
</svg>
