<?xml version="1.0" encoding="utf-8"?>
<!-- Generator: Adobe Illustrator 19.2.1, SVG Export Plug-In . SVG Version: 6.00 Build 0)  -->
<svg version="1.1" id="レイヤー_1" xmlns="http://www.w3.org/2000/svg" xmlns:xlink="http://www.w3.org/1999/xlink" x="0px"
	 y="0px" viewBox="0 0 157.6 45" style="enable-background:new 0 0 157.6 45;" xml:space="preserve">
<style type="text/css">
	.st0{fill:#F4D723;}
	.st1{fill:#060001;}
	.st2{fill:#040000;}
</style>
<g>
	
		<rect x="141.2" y="32.9" transform="matrix(0.5908 -0.8068 0.8068 0.5908 31.4006 133.197)" class="st0" width="11.5" height="5.4"/>
	<g>
		<polygon class="st0" points="144.7,32.7 144.8,42.7 1.4,42.7 1.4,2 154.3,2 154.3,32.6 		"/>
		<path class="st1" d="M144.8,44.2H1.4c-0.8,0-1.5-0.7-1.5-1.5V2c0-0.8,0.7-1.5,1.5-1.5h152.9c0.8,0,1.5,0.7,1.5,1.5v30.5
			c0,0.8-0.7,1.5-1.5,1.5l-8.1,0.1l0.1,8.6c0,0.4-0.2,0.8-0.4,1C145.6,44,145.2,44.2,144.8,44.2z M2.8,41.2h140.5l-0.1-8.6
			c0-0.8,0.6-1.5,1.5-1.5l8.1-0.1V3.5H2.8V41.2z"/>
	</g>
	<g>
		<path class="st2" d="M36.9,18.3l-1.7-0.1h-1.8v15.7h-6.8l0-15.7h-0.3L25,18.3c-0.6,0-0.9-0.2-0.9-0.6c0-0.4,0.3-0.6,0.9-0.6
			l1.9,0.1c0.2-1.9,1.1-3.4,2.5-4.4c1.3-0.9,3.1-1.4,5.3-1.4c2,0,3.4,0.4,4.2,1.2c0.2,0.2,0.3,0.4,0.3,0.6c0,0.5-0.2,0.7-0.7,0.7
			c-0.2,0-0.5-0.1-0.7-0.2l-0.6-0.4c-0.6-0.5-1.3-0.7-2-0.7c-0.2,0-0.4,0-0.6,0c-0.2,0-0.4,0-0.6,0c-0.2,0-0.4,0-0.5,0.1v4.5h1.4
			L37,17c0.6,0,0.9,0.2,0.9,0.6C37.8,18.1,37.5,18.3,36.9,18.3z"/>
		<path class="st2" d="M45.4,34.2c-3.7,0-5.5-1.8-5.5-5.4V17.1h6.7v15.4c0.1,0.1,0.2,0.1,0.4,0.1h0.5c0.8,0,1.8-0.6,3-1.7
			c0.3-0.3,0.7-0.7,1-1.1V17.1h6.8v16.8h-6.8v-2.4C49.8,33.3,47.7,34.2,45.4,34.2z"/>
		<path class="st2" d="M62.2,31.8c0-0.2,0.1-0.3,0.2-0.4c0.1-0.1,0.3-0.2,0.4-0.2s0.3,0.1,0.4,0.2l0.4,0.4c1.1,1,2.6,1.4,4.6,1.4
			c1.3,0,2.2-0.3,2.6-0.8c0.1-0.1,0.2-0.3,0.2-0.5c0-0.2,0-0.3-0.1-0.4c-0.1-0.1-0.2-0.3-0.4-0.5c-0.2-0.2-0.5-0.5-0.8-0.7l-1.4-1.1
			c-2.3-1.8-3.9-3.2-4.7-4.4c-0.8-1-1.2-2.1-1.2-3.1c0-1.3,0.6-2.5,1.8-3.4c1.3-0.9,2.9-1.4,4.9-1.4c1.4,0,2.5,0.2,3.4,0.5
			c0.8,0.3,1.4,0.6,1.7,0.9c0.3,0.3,0.5,0.5,0.5,0.7c0,0.5-0.2,0.7-0.5,0.7c-0.2,0-0.3-0.1-0.5-0.2c-0.1-0.1-0.4-0.3-0.8-0.6
			c-0.4-0.3-1-0.5-1.7-0.7c-0.7-0.2-1.3-0.3-1.9-0.3c-0.6,0-1,0.1-1.3,0.3c-0.2,0.2-0.4,0.4-0.4,0.6c0,0.2,0,0.4,0.1,0.5
			c0.1,0.2,0.2,0.4,0.4,0.6c0.5,0.5,1.2,1.2,2.2,1.9c1,0.7,1.9,1.4,2.6,2c0.7,0.6,1.3,1.2,1.7,1.7c0.7,0.9,1.1,1.9,1.1,2.9
			c0,1-0.2,1.8-0.5,2.5c-0.4,0.7-0.9,1.3-1.5,1.8c-1.4,1.1-3.3,1.6-5.6,1.6c-1.9,0-3.4-0.4-4.7-1.1C62.6,32.7,62.2,32.3,62.2,31.8z"
			/>
		<path class="st2" d="M94.2,30.1c0.4,0,0.6,0.2,0.6,0.6c0,0.3-0.2,0.6-0.6,1c-1.7,1.7-3.9,2.6-6.8,2.6c-2.6,0-4.8-0.8-6.6-2.3
			c-1.8-1.6-2.8-3.7-2.8-6.2c0-2.5,0.8-4.6,2.5-6.3c1.8-1.7,4.1-2.6,7-2.6c2.3,0,4.3,0.7,5.9,2.1c1.7,1.5,2.6,3.5,2.6,6
			c0,0.4,0,0.7,0,1.1H85.6v6.8c0.7,0.1,1.5,0.2,2.4,0.2c1.9,0,3.5-0.6,4.8-1.9c0.3-0.3,0.5-0.5,0.6-0.6
			C93.7,30.2,93.9,30.1,94.2,30.1z M89.9,18.3c-0.7-0.2-1.5-0.3-2.3-0.3c-0.9,0-1.5,0.1-2,0.2v6.8h4.4V18.3z"/>
		<path class="st2" d="M111.7,18.8c-0.3-0.2-0.5-0.3-0.9-0.3c-0.3,0-0.6,0.1-0.9,0.2c-0.3,0.1-0.7,0.3-1,0.6
			c-0.7,0.5-1.4,1.3-2.1,2.1v12.4H100V17.1h6.8v2.7c1.8-2,3.8-3,6.1-3c3.7,0,5.6,1.8,5.6,5.4v11.7h-6.8V18.8z"/>
		<path class="st2" d="M122.7,32.2c-0.2-0.4-0.2-0.9-0.2-1.3s0.1-0.9,0.3-1.3c0.2-0.4,0.4-0.7,0.8-1c0.7-0.6,1.6-1,2.7-1
			c1.1,0,2,0.4,2.7,1.1c0.6,0.7,0.9,1.4,0.9,2.3c0,0.9-0.4,1.6-1.1,2.2c-0.7,0.6-1.6,0.9-2.7,0.9C124.3,34.2,123.2,33.6,122.7,32.2z
			"/>
	</g>
	<g>
		<line class="st0" x1="154.3" y1="32.6" x2="144.8" y2="42.7"/>
		<path class="st1" d="M144.8,44.2c-0.4,0-0.7-0.1-1-0.4c-0.6-0.6-0.6-1.5-0.1-2.1l9.5-10.1c0.6-0.6,1.5-0.6,2.1-0.1
			c0.6,0.6,0.6,1.5,0.1,2.1l-9.5,10.1C145.6,44,145.2,44.2,144.8,44.2z"/>
	</g>
</g>
<g>
	
		<rect x="141.2" y="32.9" transform="matrix(0.5908 -0.8068 0.8068 0.5908 31.4006 133.197)" class="st0" width="11.5" height="5.4"/>
	<g>
		<polygon class="st0" points="144.7,32.7 144.8,42.7 1.4,42.7 1.4,2 154.3,2 154.3,32.6 		"/>
		<path class="st1" d="M144.8,44.2H1.4c-0.8,0-1.5-0.7-1.5-1.5V2c0-0.8,0.7-1.5,1.5-1.5h152.9c0.8,0,1.5,0.7,1.5,1.5v30.5
			c0,0.8-0.7,1.5-1.5,1.5l-8.1,0.1l0.1,8.6c0,0.4-0.2,0.8-0.4,1C145.6,44,145.2,44.2,144.8,44.2z M2.8,41.2h140.5l-0.1-8.6
			c0-0.8,0.6-1.5,1.5-1.5l8.1-0.1V3.5H2.8V41.2z"/>
	</g>
	<g>
		<path class="st2" d="M36.9,18.3l-1.7-0.1h-1.8v15.7h-6.8l0-15.7h-0.3L25,18.3c-0.6,0-0.9-0.2-0.9-0.6c0-0.4,0.3-0.6,0.9-0.6
			l1.9,0.1c0.2-1.9,1.1-3.4,2.5-4.4c1.3-0.9,3.1-1.4,5.3-1.4c2,0,3.4,0.4,4.2,1.2c0.2,0.2,0.3,0.4,0.3,0.6c0,0.5-0.2,0.7-0.7,0.7
			c-0.2,0-0.5-0.1-0.7-0.2l-0.6-0.4c-0.6-0.5-1.3-0.7-2-0.7c-0.2,0-0.4,0-0.6,0c-0.2,0-0.4,0-0.6,0c-0.2,0-0.4,0-0.5,0.1v4.5h1.4
			L37,17c0.6,0,0.9,0.2,0.9,0.6C37.8,18.1,37.5,18.3,36.9,18.3z"/>
		<path class="st2" d="M45.4,34.2c-3.7,0-5.5-1.8-5.5-5.4V17.1h6.7v15.4c0.1,0.1,0.2,0.1,0.4,0.1h0.5c0.8,0,1.8-0.6,3-1.7
			c0.3-0.3,0.7-0.7,1-1.1V17.1h6.8v16.8h-6.8v-2.4C49.8,33.3,47.7,34.2,45.4,34.2z"/>
		<path class="st2" d="M62.2,31.8c0-0.2,0.1-0.3,0.2-0.4c0.1-0.1,0.3-0.2,0.4-0.2s0.3,0.1,0.4,0.2l0.4,0.4c1.1,1,2.6,1.4,4.6,1.4
			c1.3,0,2.2-0.3,2.6-0.8c0.1-0.1,0.2-0.3,0.2-0.5c0-0.2,0-0.3-0.1-0.4c-0.1-0.1-0.2-0.3-0.4-0.5c-0.2-0.2-0.5-0.5-0.8-0.7l-1.4-1.1
			c-2.3-1.8-3.9-3.2-4.7-4.4c-0.8-1-1.2-2.1-1.2-3.1c0-1.3,0.6-2.5,1.8-3.4c1.3-0.9,2.9-1.4,4.9-1.4c1.4,0,2.5,0.2,3.4,0.5
			c0.8,0.3,1.4,0.6,1.7,0.9c0.3,0.3,0.5,0.5,0.5,0.7c0,0.5-0.2,0.7-0.5,0.7c-0.2,0-0.3-0.1-0.5-0.2c-0.1-0.1-0.4-0.3-0.8-0.6
			c-0.4-0.3-1-0.5-1.7-0.7c-0.7-0.2-1.3-0.3-1.9-0.3c-0.6,0-1,0.1-1.3,0.3c-0.2,0.2-0.4,0.4-0.4,0.6c0,0.2,0,0.4,0.1,0.5
			c0.1,0.2,0.2,0.4,0.4,0.6c0.5,0.5,1.2,1.2,2.2,1.9c1,0.7,1.9,1.4,2.6,2c0.7,0.6,1.3,1.2,1.7,1.7c0.7,0.9,1.1,1.9,1.1,2.9
			c0,1-0.2,1.8-0.5,2.5c-0.4,0.7-0.9,1.3-1.5,1.8c-1.4,1.1-3.3,1.6-5.6,1.6c-1.9,0-3.4-0.4-4.7-1.1C62.6,32.7,62.2,32.3,62.2,31.8z"
			/>
		<path class="st2" d="M94.2,30.1c0.4,0,0.6,0.2,0.6,0.6c0,0.3-0.2,0.6-0.6,1c-1.7,1.7-3.9,2.6-6.8,2.6c-2.6,0-4.8-0.8-6.6-2.3
			c-1.8-1.6-2.8-3.7-2.8-6.2c0-2.5,0.8-4.6,2.5-6.3c1.8-1.7,4.1-2.6,7-2.6c2.3,0,4.3,0.7,5.9,2.1c1.7,1.5,2.6,3.5,2.6,6
			c0,0.4,0,0.7,0,1.1H85.6v6.8c0.7,0.1,1.5,0.2,2.4,0.2c1.9,0,3.5-0.6,4.8-1.9c0.3-0.3,0.5-0.5,0.6-0.6
			C93.7,30.2,93.9,30.1,94.2,30.1z M89.9,18.3c-0.7-0.2-1.5-0.3-2.3-0.3c-0.9,0-1.5,0.1-2,0.2v6.8h4.4V18.3z"/>
		<path class="st2" d="M111.7,18.8c-0.3-0.2-0.5-0.3-0.9-0.3c-0.3,0-0.6,0.1-0.9,0.2c-0.3,0.1-0.7,0.3-1,0.6
			c-0.7,0.5-1.4,1.3-2.1,2.1v12.4H100V17.1h6.8v2.7c1.8-2,3.8-3,6.1-3c3.7,0,5.6,1.8,5.6,5.4v11.7h-6.8V18.8z"/>
		<path class="st2" d="M122.7,32.2c-0.2-0.4-0.2-0.9-0.2-1.3s0.1-0.9,0.3-1.3c0.2-0.4,0.4-0.7,0.8-1c0.7-0.6,1.6-1,2.7-1
			c1.1,0,2,0.4,2.7,1.1c0.6,0.7,0.9,1.4,0.9,2.3c0,0.9-0.4,1.6-1.1,2.2c-0.7,0.6-1.6,0.9-2.7,0.9C124.3,34.2,123.2,33.6,122.7,32.2z
			"/>
	</g>
	<g>
		<line class="st0" x1="154.3" y1="32.6" x2="144.8" y2="42.7"/>
		<path class="st1" d="M144.8,44.2c-0.4,0-0.7-0.1-1-0.4c-0.6-0.6-0.6-1.5-0.1-2.1l9.5-10.1c0.6-0.6,1.5-0.6,2.1-0.1
			c0.6,0.6,0.6,1.5,0.1,2.1l-9.5,10.1C145.6,44,145.2,44.2,144.8,44.2z"/>
	</g>
</g>
<g>
	<polygon class="st0" points="314.5,43 305,43 161.6,43 161.6,2.3 314.5,2.3 314.5,32.9 	"/>
	<path class="st1" d="M314.5,44.4H161.6c-0.8,0-1.5-0.7-1.5-1.5V2.3c0-0.8,0.7-1.5,1.5-1.5h152.9c0.8,0,1.5,0.7,1.5,1.5V43
		C316,43.8,315.3,44.4,314.5,44.4z M163.1,41.5h150V3.8h-150V41.5z"/>
</g>
<g>
	<path class="st2" d="M197.1,18.6l-1.7-0.1h-1.8v15.7h-6.8l0-15.7h-0.3l-1.5,0.1c-0.6,0-0.9-0.2-0.9-0.6c0-0.4,0.3-0.6,0.9-0.6
		l1.9,0.1c0.2-1.9,1.1-3.4,2.5-4.4c1.3-0.9,3.1-1.4,5.3-1.4c2,0,3.4,0.4,4.2,1.2c0.2,0.2,0.3,0.4,0.3,0.6c0,0.5-0.2,0.7-0.7,0.7
		c-0.2,0-0.5-0.1-0.7-0.2l-0.6-0.4c-0.6-0.5-1.3-0.7-2-0.7c-0.2,0-0.4,0-0.6,0s-0.4,0-0.6,0c-0.2,0-0.4,0-0.5,0.1v4.5h1.4l2.1-0.1
		c0.6,0,0.9,0.2,0.9,0.6C198,18.4,197.7,18.6,197.1,18.6z"/>
	<path class="st2" d="M205.6,34.5c-3.7,0-5.5-1.8-5.5-5.4V17.4h6.7v15.4c0.1,0.1,0.2,0.1,0.4,0.1h0.5c0.8,0,1.8-0.6,3-1.7
		c0.3-0.3,0.7-0.7,1-1.1V17.4h6.8v16.8h-6.8v-2.4C210,33.6,207.9,34.5,205.6,34.5z"/>
	<path class="st2" d="M222.4,32.1c0-0.2,0.1-0.3,0.2-0.4c0.1-0.1,0.3-0.2,0.4-0.2c0.2,0,0.3,0.1,0.4,0.2l0.4,0.4
		c1.1,1,2.6,1.4,4.6,1.4c1.3,0,2.2-0.3,2.6-0.8c0.1-0.1,0.2-0.3,0.2-0.5c0-0.2,0-0.3-0.1-0.4c-0.1-0.1-0.2-0.3-0.4-0.5
		c-0.2-0.2-0.5-0.5-0.8-0.7l-1.4-1.1c-2.3-1.8-3.9-3.2-4.7-4.4c-0.8-1-1.2-2.1-1.2-3.1c0-1.3,0.6-2.5,1.8-3.4
		c1.3-0.9,2.9-1.4,4.9-1.4c1.4,0,2.5,0.2,3.4,0.5c0.8,0.3,1.4,0.6,1.7,0.9c0.3,0.3,0.5,0.5,0.5,0.7c0,0.5-0.2,0.7-0.5,0.7
		c-0.2,0-0.3-0.1-0.5-0.2c-0.1-0.1-0.4-0.3-0.8-0.6c-0.4-0.3-1-0.5-1.7-0.7c-0.7-0.2-1.3-0.3-1.9-0.3c-0.6,0-1,0.1-1.3,0.3
		c-0.2,0.2-0.4,0.4-0.4,0.6c0,0.2,0,0.4,0.1,0.5c0.1,0.2,0.2,0.4,0.4,0.6c0.5,0.5,1.2,1.2,2.2,1.9c1,0.7,1.9,1.4,2.6,2
		c0.7,0.6,1.3,1.2,1.7,1.7c0.7,0.9,1.1,1.9,1.1,2.9c0,1-0.2,1.8-0.5,2.5c-0.4,0.7-0.9,1.3-1.5,1.8c-1.4,1.1-3.3,1.6-5.6,1.6
		c-1.9,0-3.4-0.4-4.7-1.1C222.8,33,222.4,32.5,222.4,32.1z"/>
	<path class="st2" d="M254.4,30.4c0.4,0,0.6,0.2,0.6,0.6c0,0.3-0.2,0.6-0.6,1c-1.7,1.7-3.9,2.6-6.8,2.6c-2.6,0-4.8-0.8-6.6-2.3
		c-1.8-1.6-2.8-3.7-2.8-6.2c0-2.5,0.8-4.6,2.5-6.3c1.8-1.7,4.1-2.6,7-2.6c2.3,0,4.3,0.7,5.9,2.1c1.7,1.5,2.6,3.5,2.6,6
		c0,0.4,0,0.7,0,1.1h-10.4v6.8c0.7,0.1,1.5,0.2,2.4,0.2c1.9,0,3.5-0.6,4.8-1.9c0.3-0.3,0.5-0.5,0.6-0.6
		C253.9,30.5,254.1,30.4,254.4,30.4z M250.2,18.5c-0.7-0.2-1.5-0.3-2.3-0.3c-0.9,0-1.5,0.1-2,0.2v6.8h4.4V18.5z"/>
	<path class="st2" d="M271.9,19.1c-0.3-0.2-0.5-0.3-0.9-0.3c-0.3,0-0.6,0.1-0.9,0.2c-0.3,0.1-0.7,0.3-1,0.6
		c-0.7,0.5-1.4,1.3-2.1,2.1v12.4h-6.8V17.4h6.8v2.7c1.8-2,3.8-3,6.1-3c3.7,0,5.6,1.8,5.6,5.4v11.7h-6.8V19.1z"/>
	<path class="st2" d="M282.9,32.5c-0.2-0.4-0.2-0.9-0.2-1.3s0.1-0.9,0.3-1.3c0.2-0.4,0.4-0.7,0.8-1c0.7-0.6,1.6-1,2.7-1
		c1.1,0,2,0.4,2.7,1.1c0.6,0.7,0.9,1.4,0.9,2.3c0,0.9-0.4,1.6-1.1,2.2c-0.7,0.6-1.6,0.9-2.7,0.9C284.5,34.5,283.4,33.8,282.9,32.5z"
		/>
</g>
</svg>
